<?xml version="1.0" encoding="UTF-8" standalone="no"?>
<svg
   xmlns:dc="http://purl.org/dc/elements/1.1/"
   xmlns:cc="http://creativecommons.org/ns#"
   xmlns:rdf="http://www.w3.org/1999/02/22-rdf-syntax-ns#"
   xmlns:svg="http://www.w3.org/2000/svg"
   xmlns="http://www.w3.org/2000/svg"
   xmlns:xlink="http://www.w3.org/1999/xlink"
   xmlns:sodipodi="http://sodipodi.sourceforge.net/DTD/sodipodi-0.dtd"
   xmlns:inkscape="http://www.inkscape.org/namespaces/inkscape"
   version="1.1"
   width="600px"
   height="469px"
   id="svg2"
   inkscape:version="0.48.2 r9819"
   sodipodi:docname="PlayStation_Move_Logo.svg">
  <metadata
     id="metadata16">
    <rdf:RDF>
      <cc:Work
         rdf:about="">
        <dc:format>image/svg+xml</dc:format>
        <dc:type
           rdf:resource="http://purl.org/dc/dcmitype/StillImage" />
      </cc:Work>
    </rdf:RDF>
  </metadata>
  <sodipodi:namedview
     pagecolor="#ffffff"
     bordercolor="#666666"
     borderopacity="1"
     objecttolerance="10"
     gridtolerance="10"
     guidetolerance="10"
     inkscape:pageopacity="0"
     inkscape:pageshadow="2"
     inkscape:window-width="1920"
     inkscape:window-height="1145"
     id="namedview14"
     showgrid="false"
     inkscape:zoom="0.50319829"
     inkscape:cx="300"
     inkscape:cy="234.5"
     inkscape:window-x="-2"
     inkscape:window-y="-3"
     inkscape:window-maximized="1"
     inkscape:current-layer="svg2" />
  <defs
     id="defs4">
    <linearGradient
       id="linearGradient2820">
      <stop
         style="stop-color:#00adef;stop-opacity:1"
         offset="0"
         id="stop7" />
      <stop
         style="stop-color:#0951a4;stop-opacity:1"
         offset="1"
         id="stop9" />
    </linearGradient>
    <linearGradient
       xlink:href="#linearGradient2820"
       id="linearGradient2826"
       x1="864.47034"
       y1="164.9449"
       x2="1089.0339"
       y2="248.41103"
       gradientUnits="userSpaceOnUse"
       gradientTransform="translate(-635.9322,35.771186)" />
  </defs>
  <path
     style="fill:#000000;fill-opacity:1"
     d="m 60.987287,453.90051 c -13.92183,-2.43812 -28.06057,-12.82574 -34.74784,-25.52896 -11.05076,-20.99217 -6.95834,-48.86369 9.96225,-67.84817 2.77781,-3.11663 10.95344,-10.50392 18.16808,-16.41618 7.21463,-5.91227 23.69251,-19.48437 36.61751,-30.16023 C 283.37467,155.03792 436.2648,29.433485 440.6491,26.687957 c 9.1394,-5.723252 14.0331,-7.117948 24.8382,-7.078894 8.0059,0.02894 11.1863,0.496998 15.9494,2.34729 7.3542,2.856843 14.6704,9.512009 18.0222,16.393685 3.378,6.935688 5.1037,18.516228 3.8195,25.630767 -0.5455,3.021574 -15.2714,63.993775 -32.7244,135.493775 -35.2719,144.49966 -34.1077,138.42053 -27.7302,144.79806 3.0842,3.08423 3.5045,3.20188 11.4327,3.20044 7.349,-10e-4 11.552,-0.94931 39.2308,-8.84836 56.7116,-16.1845 65.9663,-18.631 70.5,-18.63686 10.8011,-0.0139 19.1312,10.93006 16.0775,21.12249 -2.2882,7.63709 -5.7003,9.99077 -32.5775,22.47177 -91.7675,42.61419 -105.0795,48.56141 -112.8894,50.43387 -28.5671,6.84916 -52.5814,-5.63535 -59.1189,-30.73471 -1.7505,-6.72043 -1.9444,-20.46141 -0.4076,-28.87304 1.9992,-10.94237 22.4926,-87.68558 48.0451,-179.91896 6.5653,-23.69763 9.7588,-36.84397 9.3524,-38.5 -1.0792,-4.39801 -3.2736,-6.76984 -7.8969,-8.53551 -7.0111,-2.67756 -10.6749,-1.4905 -18.0205,5.8386 -3.4078,3.40022 -46.21446,48.48221 -95.12581,100.18221 -48.91135,51.7 -93.65667,98.93589 -99.43406,104.96864 -5.77739,6.03275 -15.00434,15.69322 -20.50434,21.46772 -15.71396,16.49821 -30.8133,32.23454 -46.06927,48.01275 -7.7381,8.00299 -16.23553,16.91164 -18.8832,19.79699 -10.11674,11.02498 -26.660833,21.48556 -39.108643,24.7278 -7.64842,1.99216 -19.60509,2.64882 -26.43889,1.45203 z"
     id="path12" />
</svg>
